Coordinates
version=1
nRows=29
nColumns=24
inDegrees=yes

Units are S.I. units (second, meters, Newtons, ...)
Angles are in degrees.

endheader
time	pelvis_tilt	pelvis_list	pelvis_rotation	pelvis_tx	pelvis_ty	pelvis_tz	hip_flexion_r	hip_adduction_r	hip_rotation_r	knee_angle_r	ankle_angle_r	subtalar_angle_r	mtp_angle_r	hip_flexion_l	hip_adduction_l	hip_rotation_l	knee_angle_l	ankle_angle_l	subtalar_angle_l	mtp_angle_l	lumbar_extension	lumbar_bending	lumbar_rotation
      4.19000000	    -11.92791273	     -2.05743267	     -2.97662991	      2.36520638	     -0.00354549	     -0.42074890	      5.94937680	      5.64781051	      4.41944388	     -3.76329233	     -0.55013836	     -1.00711008	      6.18373517	     33.63683218	     -9.11379471	    -16.24556263	    -48.80994866	     -8.92043554	      4.94123186	     20.54849842	     10.96583377	      3.04270282	      5.02330772
      4.19500000	    -11.86417957	     -1.90877762	     -3.16910696	      2.37039307	     -0.00387721	     -0.42036634	      5.59816365	      5.51475037	      4.66021278	     -3.84190506	     -0.25365719	     -1.02629502	      6.22092252	     33.84267202	     -8.96133717	    -16.56640614	    -47.67277570	     -8.71956092	      4.59322457	     20.01908862	     10.84282455	      2.87376954	      5.24846389
      4.20000000	    -11.81643270	     -1.76316734	     -3.32400466	      2.37560686	     -0.00423932	     -0.42004882	      5.25629796	      5.37316546	      4.88072386	     -3.90500856	      0.01379830	     -1.04077075	      6.28566477	     34.05376800	     -8.78091063	    -16.81913095	    -46.49662768	     -8.53101531	      4.36978274	     19.53739635	     10.74352996	      2.69785281	      5.40899538
      4.20500000	    -11.74457096	     -1.63394417	     -3.48787271	      2.38080936	     -0.00458419	     -0.41976126	      4.88369025	      5.23966879	      5.10758365	     -3.95568309	      0.25108625	     -1.02116131	      6.39357373	     34.22107439	     -8.61354258	    -17.06293848	    -45.29541948	     -8.35645523	      4.19518101	     19.02437239	     10.61415032	      2.54015017	      5.57096751
      4.21000000	    -11.72825419	     -1.50561281	     -3.60746462	      2.38603203	     -0.00504959	     -0.41948084	      4.58133016	      5.11211804	      5.25607042	     -4.03057631	      0.51748724	     -1.03747679	      6.51723071	     34.44609745	     -8.43444443	    -17.29206247	    -44.06933469	     -8.23065712	      4.06701548	     18.63087121	     10.54977208	      2.36649622	      5.68505676
      4.21500000	    -11.66066174	     -1.38359461	     -3.75381147	      2.39122762	     -0.00544640	     -0.41928110	      4.21258633	      4.97310889	      5.43911900	     -4.07338817	      0.74386845	     -0.98192731	      6.69648942	     34.58985939	     -8.25637967	    -17.52279330	    -42.81169984	     -8.12410775	      3.97321637	     18.17361005	     10.42043907	      2.22274626	      5.82798522
      4.22000000	    -11.64164092	     -1.26485310	     -3.86350263	      2.39646613	     -0.00595254	     -0.41905798	      3.90221219	      4.84586417	      5.55639492	     -4.13644995	      1.00276052	     -0.96519795	      6.86537608	     34.77982348	     -8.07157079	    -17.74016650	    -41.53274211	     -8.06027143	      3.92329611	     17.80989228	     10.35417936	      2.05750468	      5.92141335
      4.22500000	    -11.66812317	     -1.16543354	     -3.94149680	      2.40167740	     -0.00651973	     -0.41888994	      3.64229625	      4.73608850	      5.66180244	     -4.20043077	      1.24559182	     -0.95359945	      6.99093924	     35.01883092	     -7.88171466	    -17.87462172	    -40.23224879	     -8.07178224	      3.97002598	     17.53719631	     10.32989225	      1.90924033	      5.97220912
      4.23000000	    -11.59145089	     -1.03925703	     -4.07839096	      2.40693857	     -0.00697602	     -0.41874902	      3.26072908	      4.58028612	      5.79231479	     -4.23940936	      1.49724346	     -0.84065421	      7.19866024	     35.09426037	     -7.68292171	    -18.13123928	    -38.88800912	     -8.08515850	      3.92591715	     17.14301448	     10.20068516	      1.75331298	      6.10485985
      4.23500000	    -11.54089301	     -0.92522326	     -4.16283177	      2.41216833	     -0.00748329	     -0.41865550	      2.91505818	      4.43590881	      5.87036952	     -4.29071850	      1.74389672	     -0.75072119	      7.41930958	     35.20050598	     -7.45997144	    -18.28452516	    -37.52495751	     -8.16768849	      4.00870717	     16.82535825	     10.09273715	      1.59424625	      6.18719495
      4.24000000	    -11.54617178	     -0.82329888	     -4.23388206	      2.41742292	     -0.00807516	     -0.41853448	      2.63270395	      4.31385660	      5.93189732	     -4.35319913	      1.99142838	     -0.69258534	      7.59788627	     35.35867698	     -7.24804379	    -18.42524013	    -36.14824223	     -8.32785980	      4.11507020	     16.57764228	     10.04956911	      1.43617095	      6.22532332
      4.24500000	    -11.54829888	     -0.71561453	     -4.29762233	      2.42268571	     -0.00867429	     -0.41847306	      2.35139695	      4.17931572	      5.98854736	     -4.42355138	      2.24372973	     -0.61967670	      7.77326215	     35.49370847	     -7.01704045	    -18.56396064	    -34.74269252	     -8.54696144	      4.23144277	     16.36554767	     10.00156165	      1.27906331	      6.26907479
      4.25000000	    -11.48313185	     -0.60054113	     -4.34518657	      2.42797332	     -0.00921402	     -0.41844802	      1.99628510	      4.02643261	      5.97397026	     -4.48786433	      2.49169102	     -0.48812407	      8.05749895	     35.52646018	     -6.75275890	    -18.66734510	    -33.29018087	     -8.82050721	      4.36795529	     16.26196227	      9.88116643	      1.10666814	      6.33245091
      4.25500000	    -11.52315293	     -0.49428536	     -4.41621223	      2.43324401	     -0.00987663	     -0.41841490	      1.76992371	      3.89419915	      6.04133919	     -4.58357365	      2.74479921	     -0.41156525	      8.24850212	     35.66682949	     -6.51262532	    -18.76933525	    -31.84210415	     -9.16586141	      4.47223628	     16.13600397	      9.87624757	      0.95479142	      6.38692917
      4.26000000	    -11.52972082	     -0.37998326	     -4.46890908	      2.43854297	     -0.01050663	     -0.41839098	      1.50775144	      3.74929740	      6.05261337	     -4.68132366	      2.99253834	     -0.30041339	      8.46338721	     35.74714565	     -6.25169530	    -18.86899748	    -30.36157735	     -9.57005943	      4.61586192	     16.11327025	      9.83539188	      0.78546199	      6.42941439
      4.26500000	    -11.55016218	     -0.26868937	     -4.51611030	      2.44386711	     -0.01115652	     -0.41836149	      1.26299241	      3.60909371	      6.04845749	     -4.78526010	      3.23198436	     -0.17907883	      8.69525536	     35.82417138	     -5.98966243	    -18.95673019	    -28.86556243	    -10.02140413	      4.77503738	     16.15620021	      9.81376749	      0.61281820	      6.46086815
      4.27000000	    -11.55821333	     -0.16863774	     -4.53462578	      2.44921061	     -0.01181064	     -0.41838120	      1.00259874	      3.47555883	      5.98181606	     -4.88450355	      3.44833439	     -0.03074776	      9.01608473	     35.87177010	     -5.71897062	    -19.01567007	    -27.34742743	    -10.51964718	      4.96019708	     16.36201598	      9.77851841	      0.44755747	      6.46001621
      4.27500000	    -11.62658720	     -0.05587256	     -4.61040960	      2.45453724	     -0.01252070	     -0.41835679	      0.83005388	      3.33727455	      6.00657099	     -5.02646212	      3.68282006	      0.09341603	      9.22705534	     35.96444353	     -5.46750988	    -19.10814399	    -25.84510557	    -10.97543352	      5.14895671	     16.38169100	      9.80878454	      0.28935822	      6.53877429
      4.28000000	    -11.72379072	      0.03524902	     -4.62702015	      2.45993671	     -0.01327582	     -0.41837398	      0.66952622	      3.22375219	      5.98580550	     -5.14738072	      3.88666649	      0.18045791	      9.37865157	     36.08681382	     -5.21437399	    -19.18161551	    -24.36544307	    -11.39834087	      5.46028006	     16.39507887	      9.87705751	      0.13356192	      6.50281812
      4.28500000	    -11.70055712	      0.16682692	     -4.72263227	      2.46530519	     -0.01388252	     -0.41834913	      0.41286588	      3.04759408	      5.90252973	     -5.31183767	      4.13452612	      0.51245664	      9.70349605	     36.01653322	     -4.94250547	    -19.28273745	    -22.80078849	    -11.89051324	      5.66294462	     16.70834890	      9.81167766	     -0.04624100	      6.64258506
      4.29000000	    -11.75594149	      0.27069618	     -4.77122178	      2.47074287	     -0.01458536	     -0.41835523	      0.22395499	      2.90856747	      5.81056989	     -5.45556523	      4.32963362	      0.75097268	     10.01080411	     36.03595145	     -4.68382656	    -19.35646282	    -21.28037845	    -12.32451567	      5.96254841	     16.94037404	      9.83674234	     -0.20869430	      6.67671411
      4.29500000	    -11.81865224	      0.37576450	     -4.83506428	      2.47618842	     -0.01529801	     -0.41836194	      0.05366967	      2.76693510	      5.72843166	     -5.62100435	      4.52581948	      1.00739259	     10.29475062	     36.04725304	     -4.43298196	    -19.43973963	    -19.77964710	    -12.68651097	      6.32013034	     17.10290462	      9.87138277	     -0.36567090	      6.73704081
      4.30000000	    -11.88271035	      0.48189913	     -4.89853506	      2.48167292	     -0.01600254	     -0.41838002	     -0.11206035	      2.61995948	      5.63005885	     -5.79498910	      4.70967653	      1.29990908	     10.57418141	     36.04224385	     -4.18139364	    -19.52694936	    -18.29346771	    -12.99696723	      6.72736528	     17.24127652	      9.90938820	     -0.52338458	      6.79704667
      4.30500000	    -11.94753893	      0.58996664	     -4.97258222	      2.48719216	     -0.01670450	     -0.41838441	     -0.27270738	      2.46885106	      5.52116394	     -5.97831632	      4.88785037	      1.62238110	     10.85839261	     36.02046870	     -3.93574142	    -19.61743471	    -16.82705891	    -13.25358787	      7.17980087	     17.34705078	      9.95322695	     -0.68284438	      6.86619123
      4.31000000	    -12.01297721	      0.69944174	     -5.04923909	      2.49275280	     -0.01739836	     -0.41840232	     -0.42934961	      2.31226863	      5.40196443	     -6.16959782	      5.05033044	      1.96548954	     11.14956103	     35.98341903	     -3.69055239	    -19.70672466	    -15.38422316	    -13.45796599	      7.67450892	     17.41209870	     10.00173584	     -0.84153879	      6.93983021
      4.31500000	    -12.05916629	      0.80577064	     -5.10042840	      2.49836532	     -0.01806967	     -0.41845111	     -0.61039212	      2.15255218	      5.22655161	     -6.35511172	      5.18101688	      2.33287582	     11.54505508	     35.91214838	     -3.43188933	    -19.75528250	    -13.96369852	    -13.63218891	      8.20279256	     17.46105411	     10.03070957	     -1.00634966	      6.97941836
      4.32000000	    -12.15148072	      0.92752020	     -5.22892221	      2.50399791	     -0.01876137	     -0.41843029	     -0.72019537	      1.98141635	      5.17951656	     -6.58001493	      5.32356814	      2.67665462	     11.78400555	     35.86859038	     -3.21042296	    -19.85256596	    -12.58151406	    -13.74599660	      8.75226665	     17.39614782	     10.11688706	     -1.16116559	      7.11267182
      4.32500000	    -12.21050619	      1.04873437	     -5.32885277	      2.50969866	     -0.01941374	     -0.41844042	     -0.87002900	      1.80312790	      5.06766630	     -6.80367663	      5.45272552	      3.06682002	     12.04564322	     35.77613119	     -2.97233090	    -19.91498427	    -11.22968389	    -13.83870495	      9.34644019	     17.31758669	     10.17207161	     -1.32747134	      7.20682872
      4.33000000	    -12.27225958	      1.17223173	     -5.43644395	      2.51544930	     -0.02005634	     -0.41845458	     -1.01297156	      1.62030457	      4.96583548	     -7.03562414	      5.56090899	      3.44909621	     12.31112429	     35.67129306	     -2.73687110	    -19.94043866	     -9.91334698	    -13.92668378	      9.91819948	     17.19779473	     10.23528015	     -1.49268737	      7.30997731
